<svg xmlns="http://www.w3.org/2000/svg" viewBox="0 0 64 64" role="img" aria-labelledby="title desc">
  <title id="title">Support icon</title>
  <desc id="desc">A service support headset icon in Prabhubole colors.</desc>
  <circle cx="32" cy="31" r="19" fill="#fbf7ef" stroke="#102a43" stroke-width="4"/>
  <path d="M15 32h6v12h-4a6 6 0 0 1-6-6v-2a4 4 0 0 1 4-4Zm34 0h-6v12h4a6 6 0 0 0 6-6v-2a4 4 0 0 0-4-4Z" fill="#e0f1ef" stroke="#147f78" stroke-width="3" stroke-linejoin="round"/>
  <path d="M33 50h8c5 0 8-3 8-8" stroke="#102a43" stroke-width="4" stroke-linecap="round" fill="none"/>
  <circle cx="31" cy="50" r="4" fill="#c78a2c"/>
  <path d="M24 28c5-4 11-4 16 0" stroke="#c78a2c" stroke-width="4" stroke-linecap="round" fill="none"/>
</svg>
