<svg xmlns="http://www.w3.org/2000/svg" viewBox="0 0 1440 900" role="img" aria-labelledby="title desc">
  <title id="title">Premium Prabhubole homepage background</title>
  <desc id="desc">Luxury hospitality and enterprise service dashboard pattern for the Prabhubole homepage.</desc>
  <defs>
    <linearGradient id="premiumMesh" x1="0" y1="0" x2="1" y2="1">
      <stop offset="0" stop-color="#081821"/>
      <stop offset="0.55" stop-color="#0f5f68"/>
      <stop offset="1" stop-color="#132f3c"/>
    </linearGradient>
    <linearGradient id="goldLine" x1="0" y1="0" x2="1" y2="0">
      <stop offset="0" stop-color="#f2d18a"/>
      <stop offset="1" stop-color="#c9a15d"/>
    </linearGradient>
  </defs>
  <rect width="1440" height="900" fill="url(#premiumMesh)"/>
  <circle cx="1160" cy="150" r="220" fill="none" stroke="#c9a15d" stroke-opacity="0.26" stroke-width="2"/>
  <circle cx="1196" cy="150" r="132" fill="none" stroke="#ffffff" stroke-opacity="0.12" stroke-width="1"/>
  <path d="M0 690 C210 570 330 830 585 650 C780 512 920 552 1440 410" fill="none" stroke="#ffffff" stroke-width="16" stroke-linecap="round" opacity="0.16"/>
  <path d="M0 742 C245 622 390 812 648 704 C835 626 1080 640 1440 548" fill="none" stroke="url(#goldLine)" stroke-width="5" stroke-linecap="round" opacity="0.5"/>
  <g id="service-dashboard" transform="translate(760 210)">
    <rect width="420" height="300" rx="34" fill="#ffffff" opacity="0.16"/>
    <rect x="34" y="36" width="160" height="38" rx="10" fill="#ffffff" opacity="0.34"/>
    <rect x="34" y="104" width="108" height="108" rx="18" fill="#ffffff" opacity="0.24"/>
    <rect x="166" y="104" width="180" height="24" rx="8" fill="#ffffff" opacity="0.28"/>
    <rect x="166" y="152" width="144" height="24" rx="8" fill="#ffffff" opacity="0.22"/>
    <rect x="166" y="200" width="206" height="24" rx="8" fill="#ffffff" opacity="0.18"/>
    <path d="M54 186c35-58 72-56 112-12 32 35 74 28 126-38" fill="none" stroke="url(#goldLine)" stroke-width="8" stroke-linecap="round"/>
    <circle cx="293" cy="136" r="11" fill="#f2d18a"/>
  </g>
  <g opacity="0.34">
    <rect x="178" y="180" width="230" height="128" rx="24" fill="#ffffff" opacity="0.14"/>
    <path d="M220 234h132M220 272h88" stroke="#ffffff" stroke-width="12" stroke-linecap="round" opacity="0.42"/>
    <circle cx="370" cy="250" r="28" fill="#c9a15d" opacity="0.72"/>
  </g>
</svg>
